<?xml version="1.0" encoding="utf-8"?>
<!-- Generator: Adobe Illustrator 16.0.4, SVG Export Plug-In . SVG Version: 6.00 Build 0)  -->
<!DOCTYPE svg PUBLIC "-//W3C//DTD SVG 1.1//EN" "http://www.w3.org/Graphics/SVG/1.1/DTD/svg11.dtd">
<svg version="1.1" id="Layer_1" xmlns="http://www.w3.org/2000/svg" xmlns:xlink="http://www.w3.org/1999/xlink" x="0px" y="0px"
	 width="46.403px" height="47.832px" viewBox="0 0 46.403 47.832" enable-background="new 0 0 46.403 47.832" xml:space="preserve">
<g>
	<path fill="#DCDDDE" d="M21.742,25.219c-0.381-0.866-0.741-1.66-1.076-2.383c-0.336-0.722-0.624-1.318-0.862-1.785l-0.24-0.478
		c-0.455,0.912-1.018,2.186-1.689,3.824c-0.194,0.479-0.333,0.821-0.419,1.025c-0.085,0.205-0.19,0.461-0.317,0.768
		c-0.307,0.81-0.489,1.288-0.545,1.435l-0.087,0.222h6.371c-0.069-0.159-0.166-0.386-0.291-0.683
		C22.405,26.733,22.123,26.084,21.742,25.219z"/>
	<path fill="#DCDDDE" d="M23.201,0C10.387,0,0,10.708,0,23.915c0,13.209,10.387,23.917,23.201,23.917
		c12.814,0,23.203-10.708,23.203-23.917C46.403,10.708,36.015,0,23.201,0z M21.186,11.42c0.263-0.706,0.434-1.184,0.513-1.434h3.244
		c0.148,0.501,0.376,1.126,0.683,1.878l1.555,3.842c0.227,0.58,0.632,1.525,1.211,2.834c1.378,3.085,2.504,5.548,3.381,7.386
		c0.877,1.839,1.719,3.492,2.529,4.962l0.272,0.494h-7.991l-0.411-0.939h3.415l-0.323-0.717h-3.399l-0.393-0.939h3.364l-0.325-0.7
		h-3.364l-0.393-0.939h3.33l-0.325-0.718h-3.312l-0.411-0.939h3.295l-0.323-0.699h-3.279l-0.411-0.939h3.263l-0.325-0.717h-3.245
		l-0.411-0.939h3.228l-0.323-0.701h-3.211l-0.409-0.939h3.192l-0.323-0.716h-3.177l-0.409-0.939h3.159l-3.263-7.156L21.186,11.42z
		 M25.114,33.501l-0.187-0.461c-0.637-1.708-1.02-2.698-1.145-2.972l-0.035-0.102h-8.042c-0.081,0.217-0.143,0.388-0.189,0.512
		c-0.136,0.353-0.33,0.882-0.58,1.588c-0.274,0.741-0.445,1.218-0.513,1.435h-3.108c0.58-1.024,1.133-2.083,1.657-3.177
		c1.343-2.675,2.846-5.896,4.507-9.665c1.276-2.835,2.312-5.34,3.108-7.514l0.136-0.411l2.511,5.465h-3.141l6.028,13.884h8.812
		c0.033,0.056,0.062,0.102,0.085,0.136c0.021,0.035,0.051,0.085,0.084,0.153l0.547,0.939l0.12,0.189H25.114z"/>
</g>
</svg>
