<?xml version="1.0" encoding="utf-8"?>
<!-- Generator: Adobe Illustrator 16.0.4, SVG Export Plug-In . SVG Version: 6.00 Build 0)  -->
<!DOCTYPE svg PUBLIC "-//W3C//DTD SVG 1.1//EN" "http://www.w3.org/Graphics/SVG/1.1/DTD/svg11.dtd">
<svg version="1.1" id="Layer_1" xmlns="http://www.w3.org/2000/svg" xmlns:xlink="http://www.w3.org/1999/xlink" x="0px" y="0px"
	 width="292.201px" height="47.832px" viewBox="0 0 292.201 47.832" enable-background="new 0 0 292.201 47.832"
	 xml:space="preserve">
<g>
	<path fill="#DCDDDE" d="M21.742,25.219c-0.382-0.866-0.741-1.66-1.076-2.383c-0.336-0.722-0.624-1.318-0.862-1.785l-0.24-0.478
		c-0.455,0.912-1.018,2.186-1.688,3.824c-0.194,0.479-0.333,0.821-0.419,1.025c-0.085,0.205-0.19,0.461-0.317,0.768
		c-0.307,0.811-0.489,1.289-0.545,1.436l-0.087,0.223h6.371c-0.069-0.16-0.166-0.387-0.291-0.684
		C22.405,26.732,22.123,26.084,21.742,25.219z"/>
	<path fill="#DCDDDE" d="M23.201,0C10.387,0,0,10.708,0,23.915c0,13.209,10.387,23.917,23.201,23.917
		c12.813,0,23.202-10.708,23.202-23.917C46.403,10.708,36.015,0,23.201,0z M21.186,11.42c0.264-0.706,0.435-1.184,0.514-1.434h3.243
		c0.148,0.501,0.376,1.126,0.684,1.878l1.555,3.842c0.228,0.58,0.632,1.525,1.211,2.834c1.378,3.085,2.504,5.548,3.381,7.386
		c0.877,1.84,1.72,3.492,2.529,4.963l0.272,0.493h-7.991l-0.411-0.938h3.415l-0.323-0.717h-3.398l-0.394-0.939h3.364l-0.325-0.7
		h-3.364l-0.393-0.938h3.33l-0.325-0.719h-3.312l-0.41-0.938h3.295l-0.323-0.699h-3.279l-0.411-0.939h3.264l-0.325-0.717h-3.245
		L22.6,22.197h3.229l-0.323-0.701h-3.211l-0.409-0.939h3.192l-0.323-0.716h-3.177l-0.409-0.939h3.159l-3.264-7.156L21.186,11.42z
		 M25.114,33.501l-0.187-0.461c-0.637-1.708-1.02-2.698-1.145-2.972l-0.035-0.103h-8.042c-0.081,0.218-0.144,0.388-0.189,0.513
		c-0.136,0.353-0.33,0.881-0.58,1.588c-0.273,0.74-0.444,1.218-0.513,1.435h-3.108c0.58-1.024,1.134-2.083,1.657-3.177
		c1.343-2.676,2.846-5.896,4.507-9.665c1.276-2.835,2.312-5.34,3.108-7.514l0.136-0.411l2.511,5.465h-3.141l6.028,13.884h8.812
		c0.033,0.056,0.062,0.103,0.085,0.136c0.021,0.035,0.051,0.086,0.084,0.153l0.547,0.938l0.12,0.189L25.114,33.501L25.114,33.501z"
		/>
</g>
<g>
	<path fill="#DCDDDE" d="M75.205,29.695h-2.888l-1.835-3.563H59.754l-1.836,3.563h-2.887l8.426-15.928h3.322L75.205,29.695z
		 M69.2,23.756l-4.058-7.717l-4.106,7.717H69.2z"/>
	<path fill="#DCDDDE" d="M93.839,29.695h-2.906l-1.557-2.903h-9.092l-1.557,2.903h-2.906l7.369-13.529h3.278L93.839,29.695z
		 M88.057,24.416l-3.214-5.994l-3.239,5.994H88.057z"/>
	<path fill="#DCDDDE" d="M112.364,29.695h-3.025l-3.542-4.972h-6.721v4.972h-2.641V16.166h10.935c1.438,0,2.581,0.389,3.432,1.166
		s1.276,1.818,1.276,3.124c0,2.244-1.122,3.616-3.366,4.115L112.364,29.695z M106.973,22.348c1.599,0,2.398-0.616,2.398-1.847
		c0-1.306-0.851-1.958-2.552-1.958h-7.744v3.806H106.973z"/>
	<path fill="#DCDDDE" d="M133.087,22.898c0,2.215-0.946,4.018-2.838,5.411c-1.613,1.188-3.63,1.782-6.05,1.782
		s-4.444-0.594-6.072-1.782c-1.892-1.378-2.838-3.183-2.838-5.411c0-2.201,0.953-3.99,2.86-5.369
		c1.672-1.217,3.688-1.826,6.05-1.826c2.346,0,4.355,0.609,6.027,1.826C132.134,18.923,133.087,20.712,133.087,22.898z
		 M130.337,22.887c0-1.396-0.573-2.547-1.719-3.451c-1.146-0.904-2.623-1.356-4.431-1.356c-1.821,0-3.31,0.456-4.463,1.367
		c-1.153,0.912-1.729,2.058-1.729,3.44c0,1.441,0.565,2.605,1.697,3.495c1.131,0.89,2.63,1.334,4.495,1.334
		c1.852,0,3.339-0.444,4.463-1.334C129.776,25.492,130.337,24.328,130.337,22.887z"/>
	<path fill="#DCDDDE" d="M152.667,29.695h-3.938l-9.196-11.286v11.286h-2.641V16.166h3.934l9.201,11.291V16.166h2.64V29.695z"/>
	<path fill="#DCDDDE" d="M182.718,29.695h-3.394l-7.625-8.37l-4.821,3.539v4.831h-2.64V13.768h2.64v8.25l11.153-8.25h3.812
		l-8.146,6.026L182.718,29.695z"/>
	<path fill="#DCDDDE" d="M200.956,29.695h-3.025l-3.542-4.972h-6.721v4.972h-2.641V16.166h10.935c1.438,0,2.581,0.389,3.432,1.166
		s1.276,1.818,1.276,3.124c0,2.244-1.122,3.616-3.366,4.115L200.956,29.695z M195.566,22.348c1.599,0,2.398-0.616,2.398-1.847
		c0-1.306-0.851-1.958-2.552-1.958h-7.744v3.806H195.566z"/>
	<path fill="#DCDDDE" d="M220.69,29.695h-2.906l-1.557-2.903h-9.092l-1.557,2.903h-2.906l7.369-13.529h3.278L220.69,29.695z
		 M214.907,24.416l-3.214-5.994l-3.239,5.994H214.907z"/>
	<path fill="#DCDDDE" d="M242.272,29.695h-2.64l-0.066-11.131l-6.798,9.218l-6.776-9.307l-0.065,0.088v11.131h-2.641V16.166h3.964
		l5.517,7.652l5.534-7.652h3.972V29.695z"/>
	<path fill="#DCDDDE" d="M261.456,29.695h-14.564V16.166h14.059v2.376h-11.418v2.926h7.941v2.376h-7.941v3.477h11.924V29.695z"/>
	<path fill="#DCDDDE" d="M280.794,29.695h-3.025l-3.542-4.972h-6.721v4.972h-2.641V16.166H275.8c1.438,0,2.581,0.389,3.432,1.166
		s1.276,1.818,1.276,3.124c0,2.244-1.122,3.616-3.366,4.115L280.794,29.695z M275.404,22.348c1.599,0,2.398-0.616,2.398-1.847
		c0-1.306-0.851-1.958-2.552-1.958h-7.744v3.806H275.404z"/>
</g>
</svg>
