<?xml version="1.0" encoding="utf-8"?>
<!-- Generator: Adobe Illustrator 16.0.4, SVG Export Plug-In . SVG Version: 6.00 Build 0)  -->
<!DOCTYPE svg PUBLIC "-//W3C//DTD SVG 1.1//EN" "http://www.w3.org/Graphics/SVG/1.1/DTD/svg11.dtd">
<svg version="1.1" id="Layer_1" xmlns="http://www.w3.org/2000/svg" xmlns:xlink="http://www.w3.org/1999/xlink" x="0px" y="0px"
	 width="97.994px" height="110.546px" viewBox="0 0 97.994 110.546" enable-background="new 0 0 97.994 110.546"
	 xml:space="preserve">
<path fill="#DCDDDE" d="M29.273,0v73.13c-0.32-0.17-0.66-0.33-1-0.47c-6.24-2.57-14.82-0.36-21.2,6.02
	c-7.89,7.89-9.41,19.17-3.39,25.19s17.3,4.5,25.19-3.39c4.15-4.15,6.53-9.22,6.99-13.98c0.05-0.56,0.08-1.12,0.08-1.67v-63.1h55.39
	v54.46c-0.28-0.17-0.57-0.32-0.86-0.46c-6.45-3.17-15.48-1.22-22,5.3c-7.82,7.82-9.07,19.25-2.8,25.52
	c6.27,6.279,17.7,5.02,25.52-2.8c5.04-5.04,7.35-11.56,6.69-17.25h0.109V0H29.273z M35.943,15.06v-8.4h55.39v8.4H35.943z"/>
</svg>
