<?xml version="1.0" encoding="utf-8"?>
<!-- Generator: Adobe Illustrator 16.0.4, SVG Export Plug-In . SVG Version: 6.00 Build 0)  -->
<!DOCTYPE svg PUBLIC "-//W3C//DTD SVG 1.1//EN" "http://www.w3.org/Graphics/SVG/1.1/DTD/svg11.dtd">
<svg version="1.1" id="Layer_1" xmlns="http://www.w3.org/2000/svg" xmlns:xlink="http://www.w3.org/1999/xlink" x="0px" y="0px"
	 width="66.33px" height="77.67px" viewBox="0 0 66.33 77.67" enable-background="new 0 0 66.33 77.67" xml:space="preserve">
<path fill="#DCDDDE" d="M53.5,20.33c0,8.22-4.87,15.3-11.89,18.5c-2.57,1.18-5.43,1.84-8.44,1.84c-3.01,0-5.87-0.66-8.44-1.84
	c-7.02-3.2-11.9-10.28-11.9-18.5C12.83,9.1,21.94,0,33.17,0S53.5,9.1,53.5,20.33z"/>
<path fill="#DCDDDE" d="M66.33,50.83v26.84H0V50.83c0-6.52,5.21-11.84,11.71-11.99c5.2,6.02,12.88,9.83,21.46,9.83
	c8.57,0,16.25-3.81,21.45-9.83C61.12,38.99,66.33,44.31,66.33,50.83z"/>
</svg>
