<?xml version="1.0" encoding="utf-8"?>
<!-- Generator: Adobe Illustrator 16.0.4, SVG Export Plug-In . SVG Version: 6.00 Build 0)  -->
<!DOCTYPE svg PUBLIC "-//W3C//DTD SVG 1.1//EN" "http://www.w3.org/Graphics/SVG/1.1/DTD/svg11.dtd">
<svg version="1.1" id="Layer_1" xmlns="http://www.w3.org/2000/svg" xmlns:xlink="http://www.w3.org/1999/xlink" x="0px" y="0px"
	 width="149.07px" height="146.62px" viewBox="0 0 149.07 146.62" enable-background="new 0 0 149.07 146.62" xml:space="preserve">
<path fill="#DCDDDE" d="M149.07,119.95c0,14.729-11.94,26.67-26.66,26.67c-14.73,0-26.67-11.94-26.67-26.67
	c0-5.891,1.91-11.34,5.149-15.75L82.83,86.14H66.65L48.89,103.9c3.37,4.46,5.37,10.02,5.37,16.05c0,14.729-11.94,26.67-26.67,26.67
	S0.93,134.68,0.93,119.95c0-14.72,11.93-26.66,26.66-26.66c6.54,0,12.52,2.35,17.16,6.26L61.7,82.6V65.02L43.79,47.1
	c-4.63,3.89-10.6,6.23-17.12,6.23C11.94,53.33,0,41.4,0,26.67S11.94,0,26.67,0c14.72,0,26.66,11.94,26.66,26.67
	c0,6.05-2.01,11.62-5.41,16.08l17.73,17.73h18.18l16.97-16.97c-3.74-4.59-5.99-10.45-5.99-16.84C94.81,11.94,106.75,0,121.48,0
	c14.729,0,26.67,11.94,26.67,26.67s-11.94,26.66-26.67,26.66c-6.171,0-11.86-2.1-16.381-5.64L87.37,65.42V82.2l17.6,17.6
	c4.67-4.06,10.771-6.51,17.44-6.51C137.13,93.29,149.07,105.23,149.07,119.95z"/>
</svg>
